# xmcd
#
# Track frame offsets:
# 180
# 12530
# 24184
# 37121
# 48194
# 56621
# 68744
# 81531
# 98662
# 110646
# 122213
# 130938
# 139468
# 151654
# 167958
# 177733
# 194156
# 207042
# 219855
# 230535
#
# Disc length: 3315 seconds
#
#
# Revision: 6
# Processed by: cddbd v1.5.1PL0 Copyright (c) Steve Scherf et al.
# Submitted via: FreeRIP 2.90 
#
DISCID=260cf114
DTITLE=Johnny Cash - A Boy Named Sue (Live Hits)
DYEAR=1995
DGENRE=Country
TTITLE0=Folsom Prison Blues
TTITLE1=These Hands
TTITLE2=Peace in the Valley
TTITLE3=Rock Island Line
TTITLE4=The Wall
TTITLE5=Still Miss Someone
TTITLE6=Ring of Fire
TTITLE7=Sunday Morning Coming Down
TTITLE8=The Highwayman
TTITLE9=Big River
TTITLE10=I Got Stripes
TTITLE11=Get Rythm
TTITLE12=Sixteen Tons
TTITLE13=A Boy Named Sue
TTITLE14=Why Me Lord
TTITLE15=City of New Orleans
TTITLE16=Long Black Veil
TTITLE17=Jackson
TTITLE18=If I were a Carpenter
TTITLE19=Orange Blossom Special
EXTD=
EXTT0=
EXTT1=
EXTT2=
EXTT3=
EXTT4=
EXTT5=
EXTT6=
EXTT7=
EXTT8=
EXTT9=
EXTT10=
EXTT11=
EXTT12=
EXTT13=
EXTT14=
EXTT15=
EXTT16=
EXTT17=
EXTT18=
EXTT19=
PLAYORDER=
